# xmcd CD database file
#
# Track frame offsets:
#	150
#	17930
#	30274
#	53497
#	70198
#	104656
#	117790
#	138501
#	154787
#	179734
#	199379
#
# Disc length: 2676 seconds
#
# Revision: 0
# Processed by: cddbd v1.5.2PL0 Copyright (c) Steve Scherf et al.
# Submitted via: CDex 1.70beta2
#
DISCID=990a720b
DTITLE=Ray Chesna - The Perfect Blend
DYEAR=2005
DGENRE=Blues
TTITLE0=Tore Up
TTITLE1=I Want to Be with Somebody
TTITLE2=Computer Blues (Modern Muddy)
TTITLE3=The Perfect Blend
TTITLE4=Chasin' My Blues
TTITLE5=I'm Callin' in Rich (The Lottery Song)
TTITLE6=When Benny Played Memories of You
TTITLE7=All I Did Was Love Her
TTITLE8=Blues for Dixie
TTITLE9=(I Don't Think That's) What Heaven Had in Mind
TTITLE10=Twelve Bar Blues Song
EXTD=YEAR: 2005
EXTT0=
EXTT1=
EXTT2=
EXTT3=
EXTT4=
EXTT5=
EXTT6=
EXTT7=
EXTT8=
EXTT9=
EXTT10=
PLAYORDER=
